<svg width="922" height="264" xmlns="http://www.w3.org/2000/svg" xmlns:xlink="http://www.w3.org/1999/xlink" overflow="hidden"><defs><clipPath id="clip0"><rect x="179" y="228" width="922" height="264"/></clipPath></defs><g clip-path="url(#clip0)" transform="translate(-179 -228)"><path d="M138.344 257.963C132.614 255.712 124.94 248.958 122.177 243.944 118.8 237.805 95.9814 191.963 80.4279 160.14 72.6512 144.381 65.8977 130.772 65.386 129.953 64.8744 129.135 64.1581 127.702 63.8512 126.884 63.4419 126.065 57.7116 114.298 51.0605 100.688 44.307 87.1814 38.8837 75.6186 38.8837 75.0047 38.8837 74.3907 38.1674 73.3674 37.3488 72.6512 36.5302 71.9349 35.814 70.6047 35.814 69.5814 35.814 68.5581 35.0977 67.2279 34.2791 66.5116 33.4605 65.7953 32.7442 64.4651 32.7442 63.5442 32.6419 60.2698 28.7535 57.0977 23.8419 56.1767 0.818605 51.8791-8.08372 24.3535 8.59535 9.00465 14.4279 3.5814 18.5209 2.04651 27.7302 2.04651 35.4047 2.04651 36.6326 2.35349 41.0326 5.2186 49.5256 10.6419 54.2326 19.2372 54.2326 29.2651 54.2326 34.586 54.5395 35.3023 59.5535 41.2372 83.293 69.3767 120.54 98.1302 145.814 107.749 157.888 112.251 159.935 112.967 175.181 117.06 178.149 117.879 183.163 119.312 186.335 120.13 197.079 123.2 202.605 122.177 205.06 116.651 205.367 115.833 206.595 113.786 207.721 112.047 208.847 110.409 209.972 108.26 210.381 107.442 210.688 106.623 211.405 105.191 211.916 104.372 212.428 103.553 213.144 102.121 213.451 101.302 213.758 100.484 214.474 99.0512 214.986 98.2326 215.498 97.414 216.214 95.9814 216.521 95.1628 216.828 94.3442 217.442 92.9116 217.953 92.093 218.465 91.2744 221.842 84.3163 225.628 76.7442 229.414 69.1721 233.098 61.7023 233.916 60.1674 236.065 56.0744 235.758 44.5116 233.405 40.5209 229.414 34.1767 222.353 30.6977 213.247 30.6977 205.674 30.6977 204.651 30.0837 204.651 25.5814 204.651 21.8977 207.516 15.3488 212.121 8.49302L214.372 5.11628 252.028 5.11628C285.079 5.11628 289.684 5.32093 290.298 6.75349 290.809 8.18605 279.451 31.6186 255.302 78.2791 250.084 88.4093 244.149 99.8698 242.205 103.758L238.623 110.819 244.353 116.549C253.563 125.758 255.814 134.66 251.619 145.712 248.958 152.567 244.558 157.684 238.521 160.753 233.2 163.516 223.684 164.437 218.874 162.8 214.986 161.47 213.553 162.288 210.995 167.507 203.833 181.526 186.642 214.986 179.991 227.674 175.591 236.167 171.498 243.944 170.986 245.07 168.428 250.186 161.572 255.507 154.205 258.065 147.758 260.316 144.074 260.316 138.344 257.963ZM154.819 202.912C159.935 201.07 165.665 196.26 168.019 191.86 170.474 187.153 177.228 173.442 180.093 167.302 181.628 163.926 185.414 156.149 188.279 150.112 191.349 143.972 193.293 138.753 192.781 138.344 191.86 137.526 186.233 135.786 174.158 132.512 170.986 131.591 166.995 130.363 165.256 129.749 163.619 129.237 160.549 128.316 158.605 127.907 156.66 127.498 152.465 126.065 149.395 124.837 146.326 123.609 142.642 122.279 141.209 121.87 136.707 120.437 119.619 112.251 110 107.033 104.372 103.86 88 91.9907 76.1302 82.4744 74.8 81.3488 73.4698 80.7349 73.0605 81.1442 72.7535 81.4512 78.586 94.3442 86.2605 109.693 93.8326 125.042 100.279 138.344 100.688 139.163 100.995 139.981 101.712 141.414 102.223 142.233 102.735 143.051 106.726 151.135 111.023 160.14 129.135 197.898 129.237 198 137.116 202.195 142.642 205.06 148.167 205.265 154.819 202.912Z" fill="#F2F2F2" transform="matrix(1.00116 0 0 -1 179 492)"/><path d="M500.372 235.86C481.442 232.279 469.879 219.079 469.777 201.07 469.674 194.623 471.414 188.893 475.2 182.856 480.419 174.67 490.856 168.735 510.093 163.209 513.47 162.288 517.767 160.856 519.609 160.037 521.451 159.219 523.6 158.605 524.316 158.605 525.033 158.605 527.284 156.967 529.33 154.819 536.084 148.167 533.935 140.391 524.112 135.991 512.958 130.874 496.177 138.037 488.4 151.135 487.07 153.488 485.637 155.535 485.433 155.535 485.228 155.535 481.953 154.102 478.167 152.363 464.251 146.019 464.456 146.326 467.321 141.107 472.335 131.898 474.995 128.726 481.953 123.405 498.223 111.023 520.837 108.977 539.256 118.288 545.395 121.358 552.865 129.851 555.423 136.4 562.177 154.102 554.605 170.679 535.879 179.479 531.479 181.526 527.488 183.163 526.874 183.163 525.442 183.163 516.335 186.028 511.833 187.87 509.991 188.688 507.842 189.302 506.921 189.302 504.056 189.302 497.2 194.521 495.563 198 494.13 201.07 494.028 202.093 495.256 205.572 495.972 207.823 497.916 210.586 499.758 212.019 502.521 214.065 504.158 214.372 511.628 214.372 519.507 214.372 520.837 214.065 525.442 211.2 528.409 209.358 531.786 206.186 533.628 203.321 537.312 197.693 538.642 197.488 546.93 201.479 550.307 203.116 553.888 204.651 554.912 205.06 558.288 206.186 557.06 210.484 551.023 218.465 543.963 227.777 534.037 233.609 521.349 235.963 512.753 237.498 509.172 237.498 500.372 235.86Z" fill="#F2F2F2" transform="matrix(1.00116 0 0 -1 179 492)"/><path d="M383.107 233.609C382.8 232.586 382.084 230.642 381.47 229.209 380.856 227.777 380.037 225.321 379.628 223.581 379.116 221.944 378.195 218.874 377.479 216.93 376.865 214.986 375.74 211.712 375.023 209.767 374.307 207.823 373.181 204.549 372.567 202.605 371.851 200.66 370.828 197.693 370.419 195.953 369.907 194.316 367.86 188.279 365.814 182.651 363.767 177.023 361.721 171.088 361.209 169.349 360.8 167.712 359.777 164.642 359.06 162.698 358.447 160.753 357.321 157.479 356.605 155.535 355.888 153.591 354.763 150.316 354.149 148.372 353.433 146.428 352.409 143.46 352 141.721 350.567 136.707 344.837 120.744 343.814 118.8 342.074 115.423 344.633 114.605 357.321 114.605 371.237 114.605 369.6 113.377 374.409 127.907 376.251 133.228 378.298 137.935 378.912 138.344 379.628 138.753 389.451 139.163 400.912 139.163L421.581 139.163 423.526 134.865C425.879 129.442 427.619 124.428 428.744 119.823 429.256 117.879 430.279 115.935 430.995 115.526 433.247 114.093 454.94 114.4 456.167 115.935 456.884 116.753 456.27 119.721 454.121 125.86 452.484 130.67 450.744 135.991 450.233 137.628 449.823 139.367 448.8 142.335 448.084 144.279 447.47 146.223 446.344 149.498 445.628 151.442 444.912 153.386 443.786 156.66 443.172 158.605 442.456 160.549 441.535 163.619 441.023 165.256 440.512 166.995 439.181 170.884 437.953 173.953 436.726 177.023 435.395 181.014 434.884 182.651 434.372 184.391 433.451 187.358 432.735 189.302 432.121 191.247 430.995 194.521 430.279 196.465 429.563 198.409 428.437 201.684 427.823 203.628 427.107 205.572 426.186 208.642 425.674 210.279 424.344 214.986 420.353 226.344 417.898 232.074L416.465 235.349 400.093 235.349C385.358 235.349 383.619 235.144 383.107 233.609ZM403.674 198C405.926 189.814 407.665 184.186 408.893 181.321 409.712 179.479 410.326 177.33 410.326 176.409 410.326 175.591 410.94 173.647 411.758 172.112 412.474 170.577 413.395 167.609 413.805 165.563L414.521 161.674 399.991 161.674 385.563 161.674 386.074 164.028C386.586 166.177 390.679 178.558 393.442 186.233 394.158 188.177 395.284 191.451 396 193.395 396.614 195.34 397.433 198.102 397.74 199.535 398.763 205.06 399.07 205.265 401.116 202.605 402.242 201.172 403.367 199.126 403.674 198Z" fill="#F2F2F2" transform="matrix(1.00116 0 0 -1 179 492)"/><path d="M574.763 234.735C573.433 233.405 574.047 154.512 575.479 148.372 580.391 126.986 599.73 112.558 623.674 112.558 643.73 112.558 660.512 122.586 669.209 139.777 672.791 146.735 673.405 155.842 673.098 195.953L672.791 234.837 662.558 235.144C656.93 235.349 651.302 235.144 650.074 234.837L647.823 234.326 647.516 192.577 647.209 150.93 644.549 146.837C638.716 137.833 628.279 133.637 618.149 136.093 612.623 137.423 605.051 142.233 604.028 145.098 603.721 146.019 602.698 147.656 601.777 148.781 600.344 150.419 600.037 156.149 599.628 192.781L599.116 234.837 587.247 235.144C580.8 235.247 575.172 235.042 574.763 234.735Z" fill="#F2F2F2" transform="matrix(1.00116 0 0 -1 179 492)"/><path d="M626.744 63.6465C621.423 61.907 616 55.3581 616 50.6512 616 45.2279 622.958 37.6558 629.302 36.2233 633.191 35.4047 639.842 32.5395 641.888 30.9023 644.344 28.7535 644.14 24.0465 641.377 22.1023 640.047 21.1814 636.977 20.4651 634.009 20.4651 629.302 20.4651 628.586 20.7721 624.493 25.1721 620.093 29.6744 619.888 29.7767 617.944 28.0372 616.921 27.1163 616 25.4791 616 24.5581 616 21.5907 622.856 15.5535 627.563 14.2233 633.191 12.6884 642.298 13.7116 645.572 16.1674 648.744 18.4186 651.712 24.0465 651.814 27.7302 651.916 33.4605 642.809 41.7488 636.465 41.9535 635.033 41.9535 632.065 42.9767 629.814 44.307 626.54 46.1488 625.619 47.2744 625.414 50.0372 624.902 54.9488 627.46 57.3023 633.395 57.3023 637.488 57.3023 638.716 56.7907 641.888 53.7209 645.163 50.5488 645.879 50.2419 648.233 51.1628 651.712 52.493 650.995 55.2558 645.879 59.9628 641.479 64.0558 632.986 65.5907 626.744 63.6465Z" fill="#F2F2F2" transform="matrix(1.00116 0 0 -1 179 492)"/><path d="M832.521 63.4419C823.721 60.6791 820.242 49.7302 825.87 42.5674 828.223 39.6 834.772 35.814 837.74 35.7116 838.763 35.7116 841.628 34.6884 844.186 33.4605 848.074 31.5163 848.791 30.6977 849.098 27.7302 849.609 22.614 847.051 20.4651 840.605 20.4651 835.693 20.4651 834.977 20.7721 830.781 25.0698 826.381 29.4698 826.074 29.5721 823.926 28.0372 820.651 25.786 821.06 24.2512 826.279 19.0326 830.27 15.0419 831.702 14.3256 836.512 13.814 846.744 12.4837 852.986 15.0419 856.67 21.7953 859.228 26.5023 858.921 29.8791 855.544 34.3814 852.781 38.1674 847.972 40.8279 841.014 42.3628 836.614 43.2837 831.395 47.4791 831.088 50.1395 830.577 54.4372 834.26 57.3023 840.093 57.3023 844.288 57.3023 845.414 56.893 847.563 54.2326 850.019 51.3674 855.033 50.0372 856.772 51.7767 857.898 52.9023 854.521 58.1209 850.837 60.8837 846.949 63.9535 837.944 65.1814 832.521 63.4419Z" fill="#F2F2F2" transform="matrix(1.00116 0 0 -1 179 492)"/><path d="M358.549 61.7023C358.242 60.6791 357.526 58.7349 356.912 57.3023 356.298 55.8698 355.479 53.414 355.07 51.6744 354.558 50.0372 353.228 46.0465 352 42.9767 350.772 39.907 349.442 36.0186 348.93 34.2791 348.419 32.6419 347.088 28.6512 345.86 25.5814 344.633 22.5116 343.302 18.7256 343.098 17.0884 342.586 14.5302 342.791 14.3256 346.065 14.3256 350.056 14.3256 352 15.8605 352 18.9302 352 23.2279 354.967 24.5581 364.586 24.5581 374.102 24.5581 376.558 23.4326 376.558 19.0326 376.558 15.8605 378.502 14.3256 382.391 14.3256 385.153 14.3256 385.767 14.7349 385.767 16.4744 385.767 17.6 385.256 19.5442 384.54 20.7721 383.926 22 383.005 24.3535 382.595 26.093 382.186 27.7302 380.856 31.7209 379.628 34.7907 378.4 37.8605 377.07 41.8512 376.558 43.4884 376.047 45.2279 374.716 49.1163 373.488 52.186 372.26 55.2558 370.93 58.9395 370.521 60.3721 369.907 62.6233 369.088 62.9302 364.484 63.2372 360.084 63.5442 359.06 63.2372 358.549 61.7023ZM366.326 49.014C368.781 44 371.442 34.0744 370.623 33.3581 369.805 32.4372 358.344 32.6419 357.833 33.5628 357.526 33.9721 358.037 36.1209 358.856 38.3721 359.674 40.6233 360.698 43.8977 361.107 45.6372 362.54 51.3674 364.688 52.6977 366.326 49.014Z" fill="#F2F2F2" transform="matrix(1.00116 0 0 -1 179 492)"/><path d="M392.93 38.8837 392.93 14.3256 407.767 14.3256 422.605 14.3256 422.605 17.3953 422.605 20.3628 412.167 20.6698 401.628 20.9767 401.321 42.2605 401.116 63.4419 397.023 63.4419 392.93 63.4419 392.93 38.8837Z" fill="#F2F2F2" transform="matrix(1.00116 0 0 -1 179 492)"/><path d="M428.744 45.0233C428.744 27.2186 428.846 26.4 431.2 22.614 434.679 17.1907 438.363 14.5302 443.684 13.7116 451.153 12.586 457.088 14.0186 461.386 18.0093 466.912 22.9209 467.73 27.014 467.423 46.5581L467.116 62.9302 463.33 63.2372 459.442 63.5442 459.442 45.6372 459.442 27.7302 456.27 24.0465C453.507 20.8744 452.484 20.4651 448.288 20.4651 444.809 20.5674 442.763 21.1814 440.512 23.0233L437.442 25.5814 436.93 44.2047 436.419 62.9302 432.633 63.2372 428.744 63.5442 428.744 45.0233Z" fill="#F2F2F2" transform="matrix(1.00116 0 0 -1 179 492)"/><path d="M477.86 38.8837 477.86 14.3256 481.442 14.3256C483.591 14.3256 485.023 14.8372 485.023 15.6558 485.126 16.2698 485.126 23.6372 485.023 31.9256L484.921 47.0698 487.274 45.9442C488.605 45.4326 491.163 42.5674 493.005 39.6 498.326 31.3116 500.884 28.5488 502.521 29.1628 503.34 29.5721 506.716 33.6651 509.991 38.4744 513.367 43.2837 516.437 46.7628 516.846 46.3535 517.358 45.8419 517.87 38.5767 517.972 30.186L518.279 14.8372 522.167 14.5302C524.726 14.3256 525.953 14.6326 526.056 15.5535 526.056 16.2698 526.158 27.2186 526.158 39.907L526.26 62.9302 522.27 63.2372C518.381 63.4419 518.177 63.3395 512.14 54.6419 505.386 45.0233 502.828 41.9535 501.6 41.9535 500.781 41.9535 491.879 53.6186 488.195 59.6558 486.149 63.0326 485.433 63.4419 481.851 63.4419L477.86 63.4419 477.86 38.8837Z" fill="#F2F2F2" transform="matrix(1.00116 0 0 -1 179 492)"/><path d="M536.595 62.1116C536.391 61.3953 536.288 50.4465 536.391 37.8605L536.698 14.8372 540.791 14.8372 544.884 14.8372 545.191 29.9814C545.395 41.0326 545.805 45.0233 546.726 44.9209 547.34 44.9209 549.693 42.2605 551.842 39.0884 553.991 35.9163 557.572 30.6977 559.823 27.6279 562.074 24.5581 565.042 20.2605 566.474 18.1116 568.521 14.9395 569.544 14.3256 572.512 14.3256L576.093 14.3256 576.093 38.986 576.093 63.5442 572.307 63.2372 568.419 62.9302 567.907 48.093C567.6 39.907 567.088 33.3581 566.679 33.5628 566.167 33.6651 565.451 33.7674 564.837 33.7674 564.326 33.7674 563.814 34.2791 563.814 34.7907 563.814 35.4047 560.335 40.5209 556.14 46.0465 551.842 51.6744 547.442 57.814 546.316 59.8605 544.474 62.8279 543.553 63.4419 540.688 63.4419 538.744 63.4419 536.902 62.8279 536.595 62.1116Z" fill="#F2F2F2" transform="matrix(1.00116 0 0 -1 179 492)"/><path d="M586.735 62.1116C586.53 61.3953 586.428 50.4465 586.53 37.8605L586.837 14.8372 590.726 14.5302 594.512 14.2233 594.512 38.7814 594.512 63.4419 590.93 63.4419C588.884 63.4419 587.042 62.8279 586.735 62.1116Z" fill="#F2F2F2" transform="matrix(1.00116 0 0 -1 179 492)"/><path d="M660.716 62.7256C659.488 61.6 659.898 29.6744 661.228 25.3767 662.865 19.7488 668.902 14.6326 674.735 13.814 685.274 12.1767 692.744 15.5535 696.837 23.6372 698.679 27.1163 698.884 29.6744 698.884 45.5349L698.884 63.4419 694.893 63.4419 690.902 63.4419 690.493 44.5116 690.186 25.5814 687.116 23.0233C684.865 21.1814 682.819 20.5674 679.34 20.4651 675.144 20.4651 674.121 20.8744 671.358 24.0465L668.186 27.7302 668.186 45.5349 668.186 63.4419 664.809 63.4419C662.865 63.4419 661.023 63.1349 660.716 62.7256Z" fill="#F2F2F2" transform="matrix(1.00116 0 0 -1 179 492)"/><path d="M708.605 62.214C708.298 61.4977 708.195 50.4465 708.298 37.8605L708.605 14.8372 712.698 14.8372 716.791 14.8372 716.791 38.8837 716.791 62.9302 712.902 63.2372C710.447 63.4419 708.912 63.1349 708.605 62.214Z" fill="#F2F2F2" transform="matrix(1.00116 0 0 -1 179 492)"/><path d="M723.033 61.907C721.805 58.6326 723.544 57.4047 729.377 57.0977L735.209 56.7907 735.721 35.814 736.233 14.8372 740.121 14.5302C742.679 14.3256 743.907 14.6326 744.009 15.5535 744.009 16.2698 744.009 24.7628 743.907 34.2791 743.805 44.1023 744.214 53.0047 744.828 54.5395 745.851 57.0977 746.363 57.3023 751.581 57.3023 757.107 57.3023 757.209 57.3023 757.209 60.3721L757.209 63.4419 740.428 63.4419C726.512 63.4419 723.544 63.1349 723.033 61.907Z" fill="#F2F2F2" transform="matrix(1.00116 0 0 -1 179 492)"/><path d="M775.014 62.0093C774.707 61.0884 774.605 52.493 774.809 42.7721 775.116 26.707 775.321 24.7628 777.367 21.4884 780.949 15.7581 785.144 13.814 794.047 13.814 802.54 13.814 805.302 15.0419 809.805 20.9767 812.363 24.2512 812.363 24.6605 812.465 42.5674 812.465 52.6977 812.567 61.4977 812.465 62.214 812.465 63.1349 811.34 63.4419 809.191 63.2372L805.814 62.9302 805.302 45.5349C804.791 27.9349 804.586 26.9116 800.902 22.8186 798.242 19.8512 790.567 19.6465 787.293 22.307 782.893 25.9907 782.381 28.3442 782.381 46.0465L782.279 62.9302 778.902 63.2372C776.651 63.4419 775.423 63.0326 775.014 62.0093Z" fill="#F2F2F2" transform="matrix(1.00116 0 0 -1 179 492)"/><path d="M867.721 62.5209C867.721 61.907 867.619 51.2651 867.619 38.8837 867.619 26.5023 867.721 15.8605 867.721 15.2465 867.721 14.6326 869.154 14.3256 871.098 14.5302L874.372 14.8372 874.372 38.8837 874.372 62.9302 871.098 63.2372C869.154 63.4419 867.721 63.1349 867.721 62.5209Z" fill="#F2F2F2" transform="matrix(1.00116 0 0 -1 179 492)"/><path d="M885.73 61.7023C884.912 58.9395 885.219 16.8837 886.037 15.4512 886.549 14.6326 890.949 14.3256 900.567 14.5302L914.279 14.8372 914.279 17.3953C914.279 19.8512 914.074 19.9535 906.093 20.2605 891.972 20.6698 893.405 18.3163 893.098 42.2605L892.791 62.9302 889.516 63.2372C887.163 63.4419 886.14 63.0326 885.73 61.7023Z" fill="#F2F2F2" transform="matrix(1.00116 0 0 -1 179 492)"/></g></svg>