<svg width="528" height="470" xmlns="http://www.w3.org/2000/svg" xmlns:xlink="http://www.w3.org/1999/xlink" overflow="hidden"><defs><clipPath id="clip0"><rect x="376" y="125" width="528" height="470"/></clipPath></defs><g clip-path="url(#clip0)" transform="translate(-376 -125)"><path d="M253.706 464.096C242.541 461.056 231.785 452.989 222.841 441.063 220.561 437.965 204.544 406.34 179.874 356.007 176.016 348.116 169.177 334.203 164.734 325.025 160.233 315.847 154.738 304.682 152.575 300.18 150.412 295.679 145.384 285.449 141.468 277.382 137.551 269.373 131.822 257.623 128.782 251.368 125.684 245.113 120.306 234.065 116.799 226.816 113.233 219.567 107.387 207.642 103.762 200.218 100.138 192.852 94.1169 180.459 90.3172 172.743 86.5174 165.026 81.2562 154.27 78.6256 148.775 61.0299 112.531 54.9502 100.606 53.898 100.021 53.255 99.6704 50.7998 99.3781 48.5199 99.3781 36.1853 99.3781 21.5124 91.8371 12.9192 81.0224 1.87065 67.1095-1.46144 49.2799 4.1505 33.4378 10.1132 16.6604 23.1493 5.08582 40.9204 0.818408 45.4216-0.292289 56.8794-0.233831 61.7898 0.935323 66.7587 2.04602 74.2998 5.55348 78.3918 8.65174 89.4988 16.8943 95.7537 27.2998 98.5597 42.2649 99.4366 47.2338 99.495 48.6953 98.9104 53.3134 98.4428 57.2301 98.4428 58.9838 98.9104 59.8607 99.6704 61.2637 106.101 69.2139 111.07 74.8259 112.882 76.9303 115.746 80.2624 117.383 82.25 121.358 86.9851 138.954 105.516 144.741 111.07 163.097 128.49 177.185 139.889 202.614 157.836 234.415 180.284 250.842 188.701 284.338 199.633 298.251 204.193 324.966 211.558 337.301 214.248 339.698 214.774 343.147 215.592 344.9 216.06 351.331 217.697 357.761 218.69 360.509 218.515L363.315 218.34 366.354 213.254C368.05 210.448 370.154 206.765 371.148 205.07 372.083 203.374 374.246 199.575 376 196.652 377.695 193.729 380.034 189.403 381.144 187.006 382.255 184.609 388.51 172.041 395.116 159.005 415.108 119.488 419.785 109.842 421.831 104.172 423.76 98.7935 423.818 98.5597 423.818 89.0311 423.818 78.041 422.942 73.7152 419.668 68.8047 416.16 63.4851 407.918 57.4639 400.728 54.8918 397.746 53.8396 395.525 53.6642 385.47 53.4303 375.883 53.255 373.136 53.0211 370.856 52.1443 368.225 51.209 367.991 50.9751 368.167 49.3968 368.225 48.403 368.517 45.4216 368.751 42.6741 369.277 36.9453 370.213 34.1978 374.597 25.7214 380.267 14.7313 384.944 7.48259 386.873 6.72264 388.393 6.0796 518.578 6.43035 519.747 7.07338 521.852 8.18408 522.612 9.47015 522.612 11.9254 522.612 14.0883 519.514 20.6356 501.976 55.5933 490.577 78.2164 480.639 97.9167 479.821 99.3781 479.002 100.84 475.495 107.562 472.046 114.285 468.597 121.066 463.979 130.01 461.816 134.16 459.653 138.369 453.456 150.47 448.078 161.051 442.7 171.69 436.328 184.083 433.99 188.701 431.593 193.32 429.664 197.412 429.664 197.879 429.664 198.347 431.593 200.159 433.932 201.854 443.752 209.22 450.592 218.106 453.924 227.927 461.524 250.374 450.884 276.505 429.664 287.495 421.071 291.996 418.382 292.581 406.866 292.581 397.162 292.522 396.402 292.464 392.485 290.944 385.412 288.255 386.522 287.203 377.461 304.74 367.699 323.739 355.715 347.18 341.101 376.175 334.904 388.393 327.188 403.65 323.856 410.081 306.728 443.519 306.26 444.279 299.771 450.475 293.633 456.379 285.975 460.764 277.265 463.336 269.958 465.499 259.903 465.849 253.706 464.096ZM270.016 365.945C282.585 364.367 294.393 357.41 300.706 347.94 302.752 344.784 315.672 319.822 315.672 318.945 315.672 318.828 317.425 315.087 319.53 310.644 321.634 306.143 323.856 301.466 324.44 300.18 326.603 295.562 330.871 286.326 333.15 281.591 338.996 269.315 344.374 258.208 346.947 252.888L349.811 247.101 348.466 246.049C347.706 245.405 346.596 244.938 346.011 244.938 345.427 244.938 342.211 244.178 338.938 243.243 335.606 242.307 329.643 240.729 325.609 239.677 321.576 238.624 316.081 237.104 313.333 236.345 310.586 235.526 307.838 234.766 307.195 234.591 304.798 234.006 294.276 230.85 291.996 230.031 290.71 229.622 286.91 228.394 283.52 227.4 277.323 225.471 269.139 222.724 265.398 221.262 264.287 220.795 261.131 219.626 258.383 218.573 228.102 207.233 197.704 191.157 171.573 172.567 158.654 163.389 144.098 151.639 135.154 143.163 132.465 140.591 130.068 138.545 129.776 138.545 128.724 138.545 129.192 140.825 130.828 143.631 131.705 145.15 134.044 149.71 136.031 153.744 138.019 157.777 143.514 168.943 148.19 178.588 152.925 188.234 163.799 210.331 172.275 227.693 180.81 245.055 189.286 262.417 191.157 266.275 195.366 274.985 200.276 285.215 208.636 302.46 212.201 309.767 215.124 315.905 215.124 315.964 215.124 316.315 222.022 330.695 226.757 340.107 229.33 345.368 232.369 350.688 233.363 351.974 238.274 357.937 250.082 364.542 258.266 365.945 262.241 366.588 264.58 366.588 270.016 365.945Z" fill="#07256D" transform="matrix(1.00357 0 0 -1 376 595)"/></g></svg>