<svg width="225" height="337" viewBox="0 0 225 337" fill="none" xmlns="http://www.w3.org/2000/svg">
<circle cx="112.609" cy="110.737" r="105.498" stroke="white" stroke-width="9.4926"/>
<path d="M18.3966 248.046C19.5343 248.046 20.5095 248.432 21.3221 249.204C22.1347 249.936 22.5614 250.87 22.602 252.008V266.696C22.5614 268.362 22.6629 269.906 22.9067 271.328C23.1912 272.71 23.8413 273.949 24.8571 275.046C25.8728 276.143 27.1527 276.732 28.6967 276.814H48.1999C49.3376 276.854 50.2722 277.281 51.0035 278.094C51.7755 278.906 52.1615 279.881 52.1615 281.019C52.1209 282.116 51.7146 283.051 50.9426 283.823C50.2112 284.554 49.297 284.94 48.1999 284.981H26.6245C23.7803 284.818 21.4237 283.863 19.5546 282.116C17.7262 280.328 16.4057 278.155 15.593 275.595C14.821 273.035 14.4147 270.313 14.3741 267.428V252.008C14.4147 250.911 14.821 249.997 15.593 249.265C16.365 248.493 17.2996 248.087 18.3966 248.046ZM68.5442 275.534C68.5442 274.396 68.9302 273.441 69.7022 272.669C70.5149 271.857 71.49 271.45 72.6277 271.45H81.9527L80.368 266.94C79.7179 265.274 79.0678 263.71 78.4177 262.247C77.8082 260.744 77.0972 259.383 76.2846 258.164C75.5532 256.945 74.7202 256.295 73.7857 256.213C72.8105 256.295 71.937 256.945 71.165 258.164C70.393 259.383 69.6819 260.744 69.0318 262.247C68.4223 263.71 67.7925 265.274 67.1424 266.94L61.3524 282.787C60.9461 283.64 60.4179 284.351 59.7678 284.92C59.1583 285.448 58.2238 285.712 56.9642 285.712C55.7859 285.712 54.8107 285.306 54.0387 284.493C53.3073 283.68 52.9823 282.705 53.0636 281.568C53.1042 281.039 53.2261 280.552 53.4292 280.105L60.1335 262.796C62.0025 258.245 63.8716 254.568 65.7406 251.764C67.5691 249.001 70.2508 247.6 73.7857 247.559C77.28 247.6 79.9414 249.001 81.7698 251.764C83.6389 254.487 85.5079 258.164 87.377 262.796L94.0812 280.105C94.2844 280.552 94.4063 281.039 94.4469 281.568C94.5282 282.705 94.1828 283.68 93.4108 284.493C92.6794 285.306 91.7246 285.712 90.5463 285.712C89.2054 285.712 88.2099 285.448 87.5598 284.92C86.9504 284.351 86.4425 283.64 86.0362 282.787L84.8782 279.617H72.6277C71.49 279.617 70.5352 279.211 69.7632 278.398C68.9505 277.626 68.5442 276.671 68.5442 275.534ZM136.854 253.105C136.854 254.243 136.448 255.198 135.635 255.97C134.863 256.782 133.908 257.189 132.771 257.189H108.392C107.62 257.229 106.97 257.412 106.441 257.737C105.954 258.022 105.588 258.367 105.344 258.773C105.101 259.139 104.979 259.525 104.979 259.931C104.979 260.338 105.101 260.744 105.344 261.15C105.588 261.516 105.954 261.861 106.441 262.186C106.97 262.471 107.62 262.633 108.392 262.674H125.701C128.545 262.755 130.881 263.426 132.71 264.685C134.579 265.904 135.899 267.326 136.671 268.951C137.484 270.536 137.89 272.161 137.89 273.827C137.89 275.453 137.484 277.078 136.671 278.703C135.859 280.288 134.538 281.71 132.71 282.969C130.881 284.188 128.545 284.798 125.701 284.798H125.335C125.091 284.838 124.848 284.859 124.604 284.859H101.566C100.428 284.859 99.4527 284.473 98.6401 283.701C97.8681 282.888 97.4821 281.913 97.4821 280.775C97.4821 279.638 97.8884 278.683 98.701 277.911C99.4731 277.098 100.428 276.692 101.566 276.692H126.066C126.838 276.732 127.468 276.59 127.956 276.265C128.484 275.94 128.87 275.574 129.114 275.168C129.358 274.721 129.48 274.274 129.48 273.827C129.48 273.543 129.358 273.157 129.114 272.669C128.87 272.141 128.484 271.714 127.956 271.389C127.468 271.064 126.838 270.881 126.066 270.841H108.757C105.913 270.76 103.557 270.109 101.687 268.891C99.8591 267.672 98.5385 266.29 97.7259 264.746C96.9539 263.161 96.5679 261.556 96.5679 259.931C96.5679 258.347 96.9742 256.782 97.7868 255.238C98.5995 253.654 99.92 252.252 101.748 251.033C103.577 249.814 105.913 249.164 108.757 249.083H109.123C109.367 249.042 109.611 249.022 109.854 249.022H132.771C133.908 249.022 134.863 249.428 135.635 250.241C136.448 251.013 136.854 251.967 136.854 253.105ZM170.107 280.775C170.107 279.638 170.513 278.683 171.326 277.911C172.098 277.098 173.053 276.692 174.191 276.692H199.179C199.951 276.651 200.581 276.468 201.068 276.143C201.597 275.818 201.983 275.453 202.226 275.046C202.47 274.64 202.592 274.213 202.592 273.766C202.592 273.319 202.47 272.893 202.226 272.486C201.983 272.08 201.597 271.714 201.068 271.389C200.581 271.064 199.951 270.881 199.179 270.841H181.87C179.026 270.76 176.669 270.109 174.8 268.891C172.972 267.631 171.651 266.209 170.839 264.624C170.067 262.999 169.681 261.353 169.681 259.687V255.482C169.721 253.41 170.331 251.825 171.509 250.728C172.728 249.59 174.475 249.022 176.75 249.022H206.615C207.752 249.022 208.707 249.428 209.479 250.241C210.292 251.013 210.698 251.967 210.698 253.105C210.698 254.243 210.292 255.198 209.479 255.97C208.707 256.782 207.752 257.189 206.615 257.189H180.042C179.27 257.148 178.741 257.27 178.457 257.554C178.213 257.839 178.091 258.245 178.091 258.773V259.687C178.091 259.972 178.213 260.378 178.457 260.906C178.701 261.394 179.066 261.8 179.554 262.125C180.082 262.45 180.732 262.633 181.504 262.674H198.813C201.658 262.714 203.994 263.365 205.822 264.624C207.691 265.843 209.012 267.265 209.784 268.891C210.597 270.475 211.003 272.1 211.003 273.766C211.003 275.351 210.597 276.956 209.784 278.581C208.971 280.166 207.651 281.588 205.822 282.847C203.994 284.066 201.658 284.717 198.813 284.798H198.448C198.204 284.838 197.96 284.859 197.716 284.859H174.191C173.053 284.859 172.078 284.473 171.265 283.701C170.493 282.888 170.107 281.913 170.107 280.775ZM44.1774 302.105C44.1774 303.243 43.7711 304.198 42.9585 304.97C42.1865 305.782 41.2316 306.189 40.0939 306.189H15.7149C14.9429 306.229 14.2928 306.412 13.7646 306.737C13.277 307.022 12.9113 307.367 12.6676 307.773C12.4238 308.139 12.3019 308.525 12.3019 308.931C12.3019 309.338 12.4238 309.744 12.6676 310.15C12.9113 310.516 13.277 310.861 13.7646 311.186C14.2928 311.471 14.9429 311.633 15.7149 311.674H33.024C35.8682 311.755 38.2046 312.426 40.033 313.685C41.902 314.904 43.2226 316.326 43.9946 317.951C44.8072 319.536 45.2135 321.161 45.2135 322.827C45.2135 324.453 44.8072 326.078 43.9946 327.703C43.1819 329.288 41.8614 330.71 40.033 331.969C38.2046 333.188 35.8682 333.798 33.024 333.798H32.6583C32.4145 333.838 32.1708 333.859 31.927 333.859H8.88881C7.75112 333.859 6.77596 333.473 5.96333 332.701C5.19133 331.888 4.80533 330.913 4.80533 329.775C4.80533 328.638 5.21164 327.683 6.02428 326.911C6.79628 326.098 7.75112 325.692 8.88881 325.692H33.3897C34.1617 325.732 34.7915 325.59 35.2791 325.265C35.8073 324.94 36.1933 324.574 36.4371 324.168C36.6809 323.721 36.8028 323.274 36.8028 322.827C36.8028 322.543 36.6809 322.157 36.4371 321.669C36.1933 321.141 35.8073 320.714 35.2791 320.389C34.7915 320.064 34.1617 319.881 33.3897 319.841H16.0806C13.2364 319.76 10.8798 319.109 9.0107 317.891C7.18228 316.672 5.86175 315.29 5.04912 313.746C4.27711 312.161 3.89111 310.556 3.89111 308.931C3.89111 307.347 4.29743 305.782 5.11006 304.238C5.9227 302.654 7.24323 301.252 9.07165 300.033C10.9001 298.814 13.2364 298.164 16.0806 298.083H16.4463C16.6901 298.042 16.9339 298.022 17.1777 298.022H40.0939C41.2316 298.022 42.1865 298.428 42.9585 299.241C43.7711 300.013 44.1774 300.967 44.1774 302.105ZM81.6479 298.022C83.7202 298.062 85.5689 298.712 87.1942 299.972C88.8194 301.232 90.1196 302.735 91.0948 304.482C92.1106 306.229 92.8623 308.078 93.3499 310.028C93.8374 311.979 94.0812 313.97 94.0812 316.001C94.0812 318.683 93.6546 321.324 92.8013 323.924C91.9887 326.484 90.6275 328.759 88.7178 330.75C86.8488 332.741 84.4922 333.818 81.6479 333.981H60.3773C57.533 333.859 55.1561 332.802 53.2464 330.811C51.3367 328.82 49.9755 326.525 49.1629 323.924C48.3909 321.324 48.0049 318.683 48.0049 316.001C48.0049 313.319 48.4112 310.699 49.2239 308.139C50.0365 305.538 51.3773 303.243 53.2464 301.252C55.1561 299.22 57.533 298.144 60.3773 298.022H61.5353H80.4899H81.6479ZM79.5757 325.814C81.1197 325.732 82.3996 325.164 83.4154 324.107C84.4718 323.01 85.2235 321.751 85.6705 320.328C86.1174 318.906 86.3409 317.464 86.3409 316.001C86.3409 314.538 86.0971 313.116 85.6095 311.735C85.1626 310.313 84.4312 309.053 83.4154 307.956C82.3996 306.859 81.1197 306.27 79.5757 306.189H62.2666C60.7226 306.27 59.4427 306.859 58.4269 307.956C57.4111 309.053 56.6595 310.313 56.1719 311.735C55.7249 313.116 55.5015 314.538 55.5015 316.001C55.5015 317.464 55.7249 318.906 56.1719 320.328C56.6188 321.751 57.3502 323.01 58.366 324.107C59.4224 325.164 60.7226 325.732 62.2666 325.814H79.5757ZM101.687 297.046C102.825 297.046 103.8 297.432 104.613 298.204C105.426 298.936 105.852 299.87 105.893 301.008V315.696C105.852 317.362 105.954 318.906 106.198 320.328C106.482 321.71 107.132 322.949 108.148 324.046C109.164 325.143 110.444 325.732 111.988 325.814H131.491C132.628 325.854 133.563 326.281 134.294 327.094C135.066 327.906 135.452 328.881 135.452 330.019C135.412 331.116 135.005 332.051 134.233 332.823C133.502 333.554 132.588 333.94 131.491 333.981H109.915C107.071 333.818 104.715 332.863 102.845 331.116C101.017 329.328 99.6965 327.155 98.8839 324.595C98.1119 322.035 97.7056 319.313 97.6649 316.428V301.008C97.7056 299.911 98.1119 298.997 98.8839 298.265C99.6559 297.493 100.59 297.087 101.687 297.046ZM151.835 324.534C151.835 323.396 152.221 322.441 152.993 321.669C153.806 320.857 154.781 320.45 155.919 320.45H165.244L163.659 315.94C163.009 314.274 162.359 312.71 161.709 311.247C161.099 309.744 160.388 308.383 159.575 307.164C158.844 305.945 158.011 305.295 157.077 305.213C156.101 305.295 155.228 305.945 154.456 307.164C153.684 308.383 152.973 309.744 152.323 311.247C151.713 312.71 151.083 314.274 150.433 315.94L144.643 331.787C144.237 332.64 143.709 333.351 143.059 333.92C142.449 334.448 141.515 334.712 140.255 334.712C139.077 334.712 138.102 334.306 137.33 333.493C136.598 332.68 136.273 331.705 136.354 330.568C136.395 330.039 136.517 329.552 136.72 329.105L143.424 311.796C145.293 307.245 147.162 303.568 149.031 300.764C150.86 298.001 153.542 296.6 157.077 296.559C160.571 296.6 163.232 298.001 165.061 300.764C166.93 303.487 168.799 307.164 170.668 311.796L177.372 329.105C177.575 329.552 177.697 330.039 177.738 330.568C177.819 331.705 177.474 332.68 176.702 333.493C175.97 334.306 175.015 334.712 173.837 334.712C172.496 334.712 171.501 334.448 170.851 333.92C170.241 333.351 169.733 332.64 169.327 331.787L168.169 328.617H155.919C154.781 328.617 153.826 328.211 153.054 327.398C152.241 326.626 151.835 325.671 151.835 324.534ZM220.145 302.105C220.145 303.243 219.739 304.198 218.926 304.97C218.154 305.782 217.199 306.189 216.062 306.189H191.683C190.911 306.229 190.26 306.412 189.732 306.737C189.245 307.022 188.879 307.367 188.635 307.773C188.391 308.139 188.269 308.525 188.269 308.931C188.269 309.338 188.391 309.744 188.635 310.15C188.879 310.516 189.245 310.861 189.732 311.186C190.26 311.471 190.911 311.633 191.683 311.674H208.992C211.836 311.755 214.172 312.426 216.001 313.685C217.87 314.904 219.19 316.326 219.962 317.951C220.775 319.536 221.181 321.161 221.181 322.827C221.181 324.453 220.775 326.078 219.962 327.703C219.15 329.288 217.829 330.71 216.001 331.969C214.172 333.188 211.836 333.798 208.992 333.798H208.626C208.382 333.838 208.138 333.859 207.895 333.859H184.856C183.719 333.859 182.744 333.473 181.931 332.701C181.159 331.888 180.773 330.913 180.773 329.775C180.773 328.638 181.179 327.683 181.992 326.911C182.764 326.098 183.719 325.692 184.856 325.692H209.357C210.129 325.732 210.759 325.59 211.247 325.265C211.775 324.94 212.161 324.574 212.405 324.168C212.648 323.721 212.77 323.274 212.77 322.827C212.77 322.543 212.648 322.157 212.405 321.669C212.161 321.141 211.775 320.714 211.247 320.389C210.759 320.064 210.129 319.881 209.357 319.841H192.048C189.204 319.76 186.847 319.109 184.978 317.891C183.15 316.672 181.829 315.29 181.017 313.746C180.245 312.161 179.859 310.556 179.859 308.931C179.859 307.347 180.265 305.782 181.078 304.238C181.89 302.654 183.211 301.252 185.039 300.033C186.868 298.814 189.204 298.164 192.048 298.083H192.414C192.658 298.042 192.902 298.022 193.145 298.022H216.062C217.199 298.022 218.154 298.428 218.926 299.241C219.739 300.013 220.145 300.967 220.145 302.105Z" fill="white"/>
<path fill-rule="evenodd" clip-rule="evenodd" d="M106.339 74.0389C108.125 43.3825 108.375 41.914 112.083 40.422C115.327 39.1166 119.082 39.51 121.497 41.4071C122.966 42.561 123.813 44.3339 123.788 46.2019L123.429 72.9285C123.074 99.4048 123.448 106.725 124.853 100.727C125.097 99.6873 127.574 88.8279 130.357 76.5959C133.142 64.3648 135.976 53.5071 136.657 52.469C138.295 49.9734 143.376 48.9966 146.276 50.6198C149.98 52.6926 150.847 55.701 149.847 63.0048C145.782 92.666 144.68 101.692 144.167 109.498C143.331 122.234 143.522 122.425 150.331 115.643C157.47 108.533 162.558 106 169.719 105.989C176.463 105.978 179.149 108.144 179.149 113.592C179.149 116.911 178.659 117.582 168.82 127.71C158.325 138.513 156.736 140.62 149.271 153.621C144.462 161.997 135.164 172.047 129.634 174.847C124.378 177.507 114.047 179.953 108.106 179.941C89.4224 179.905 75.6691 168.313 70.5384 148.279C69.6547 144.828 68.3282 136.073 67.591 128.825C66.8537 121.577 65.6922 113.189 65.0088 110.183C63.2969 102.649 59.6357 79.7447 59.6357 76.5674C59.6357 70.7868 67.3595 67.543 71.1595 71.7274C72.576 73.2866 76.0083 83.0919 82.4847 104.078C83.3541 106.894 84.492 108.164 85.1435 107.045C85.3497 106.691 84.6334 96.5662 83.5511 84.5461C80.9933 56.1373 80.9723 52.4531 83.3482 49.9263C86.7081 46.3547 94.1709 47.8896 95.2533 52.3749C95.5075 53.4256 96.7018 61.2833 97.9078 69.8361C99.1139 78.3889 100.443 87.0888 100.861 89.1692C101.279 91.2496 101.856 94.7489 102.142 96.9445C102.428 99.1409 102.988 100.937 103.386 100.937C104.584 100.937 104.984 97.2925 106.339 74.0389ZM126.775 126.635C127.511 125.936 127.879 125.071 127.879 124.04C127.879 123.01 127.511 122.145 126.775 121.446C126.075 120.71 125.21 120.341 124.18 120.341H103.421C103.2 120.341 102.98 120.36 102.759 120.397H102.427C99.8511 120.47 97.7347 121.059 96.0785 122.163C94.4222 123.268 93.226 124.537 92.4899 125.973C91.7538 127.371 91.3857 128.788 91.3857 130.224C91.3857 131.696 91.7354 133.15 92.4347 134.585C93.1708 135.984 94.367 137.235 96.0233 138.34C97.7163 139.444 99.8511 140.033 102.427 140.106H118.107C118.806 140.143 119.377 140.309 119.818 140.603C120.297 140.898 120.646 141.284 120.867 141.763C121.088 142.204 121.198 142.554 121.198 142.811C121.198 143.216 121.088 143.621 120.867 144.026C120.646 144.394 120.297 144.725 119.818 145.02C119.377 145.314 118.806 145.443 118.107 145.406H95.9129C94.8823 145.406 94.0174 145.774 93.318 146.51C92.5819 147.21 92.2139 148.075 92.2139 149.105C92.2139 150.136 92.5635 151.019 93.2628 151.755C93.999 152.455 94.8823 152.804 95.9129 152.804H116.782C117.003 152.804 117.223 152.786 117.444 152.749H117.776C120.352 152.749 122.468 152.197 124.125 151.093C125.781 149.952 126.977 148.664 127.713 147.228C128.449 145.756 128.817 144.284 128.817 142.811C128.817 141.302 128.449 139.83 127.713 138.395C127.014 136.923 125.818 135.634 124.125 134.53C122.468 133.389 120.352 132.782 117.776 132.708H102.096C101.397 132.671 100.808 132.524 100.33 132.267C99.8879 131.972 99.5566 131.659 99.3358 131.328C99.115 130.96 99.0046 130.592 99.0046 130.224C99.0046 129.856 99.115 129.506 99.3358 129.175C99.5566 128.807 99.8879 128.494 100.33 128.236C100.808 127.942 101.397 127.776 102.096 127.739H124.18C125.21 127.739 126.075 127.371 126.775 126.635Z" fill="white"/>
<path d="M127.879 124.04C127.879 125.071 127.511 125.936 126.775 126.635C126.075 127.371 125.21 127.739 124.18 127.739H102.096C101.397 127.776 100.808 127.942 100.33 128.236C99.8879 128.494 99.5566 128.807 99.3358 129.175C99.115 129.506 99.0046 129.856 99.0046 130.224C99.0046 130.592 99.115 130.96 99.3358 131.328C99.5566 131.659 99.8879 131.972 100.33 132.267C100.808 132.524 101.397 132.671 102.096 132.708H117.776C120.352 132.782 122.468 133.389 124.125 134.53C125.818 135.634 127.014 136.923 127.713 138.395C128.449 139.83 128.817 141.302 128.817 142.811C128.817 144.284 128.449 145.756 127.713 147.228C126.977 148.664 125.781 149.952 124.125 151.093C122.468 152.197 120.352 152.749 117.776 152.749H117.444C117.223 152.786 117.003 152.804 116.782 152.804H95.9129C94.8823 152.804 93.999 152.455 93.2628 151.755C92.5635 151.019 92.2139 150.136 92.2139 149.105C92.2139 148.075 92.5819 147.21 93.318 146.51C94.0174 145.774 94.8823 145.406 95.9129 145.406H118.107C118.806 145.443 119.377 145.314 119.818 145.02C120.297 144.725 120.646 144.394 120.867 144.026C121.088 143.621 121.198 143.216 121.198 142.811C121.198 142.554 121.088 142.204 120.867 141.763C120.646 141.284 120.297 140.898 119.818 140.603C119.377 140.309 118.806 140.143 118.107 140.106H102.427C99.8511 140.033 97.7163 139.444 96.0233 138.34C94.367 137.235 93.1708 135.984 92.4347 134.585C91.7354 133.15 91.3857 131.696 91.3857 130.224C91.3857 128.788 91.7538 127.371 92.4899 125.973C93.226 124.537 94.4222 123.268 96.0785 122.163C97.7347 121.059 99.8511 120.47 102.427 120.397H102.759C102.98 120.36 103.2 120.341 103.421 120.341H124.18C125.21 120.341 126.075 120.71 126.775 121.446C127.511 122.145 127.879 123.01 127.879 124.04Z" fill="white"/>
</svg>
